<mxfile host="app.diagrams.net" modified="2024-05-28T13:46:41.953Z" agent="Mozilla/5.0 (Windows NT 10.0; Win64; x64) AppleWebKit/537.36 (KHTML, like Gecko) Chrome/122.0.0.0 YaBrowser/24.4.0.0 Safari/537.36" etag="ax_1-maqL36toypNoGJM" version="24.4.9" type="device">
  <diagram name="Страница — 1" id="q6UtFm0dDc14zU3BN2Au">
    <mxGraphModel dx="819" dy="474" grid="1" gridSize="10" guides="1" tooltips="1" connect="1" arrows="1" fold="1" page="1" pageScale="1" pageWidth="827" pageHeight="1169" math="0" shadow="0">
      <root>
        <mxCell id="0" />
        <mxCell id="1" parent="0" />
        <mxCell id="Ze2faGp0OF61Ij0ISh6p-9" style="edgeStyle=orthogonalEdgeStyle;rounded=0;orthogonalLoop=1;jettySize=auto;html=1;entryX=0.5;entryY=0;entryDx=0;entryDy=0;" edge="1" parent="1" source="Ze2faGp0OF61Ij0ISh6p-1" target="Ze2faGp0OF61Ij0ISh6p-2">
          <mxGeometry relative="1" as="geometry" />
        </mxCell>
        <mxCell id="Ze2faGp0OF61Ij0ISh6p-10" style="edgeStyle=orthogonalEdgeStyle;rounded=0;orthogonalLoop=1;jettySize=auto;html=1;entryX=0.5;entryY=0;entryDx=0;entryDy=0;" edge="1" parent="1" source="Ze2faGp0OF61Ij0ISh6p-1" target="Ze2faGp0OF61Ij0ISh6p-3">
          <mxGeometry relative="1" as="geometry" />
        </mxCell>
        <mxCell id="Ze2faGp0OF61Ij0ISh6p-11" style="edgeStyle=orthogonalEdgeStyle;rounded=0;orthogonalLoop=1;jettySize=auto;html=1;entryX=0.5;entryY=0;entryDx=0;entryDy=0;" edge="1" parent="1" source="Ze2faGp0OF61Ij0ISh6p-1" target="Ze2faGp0OF61Ij0ISh6p-4">
          <mxGeometry relative="1" as="geometry" />
        </mxCell>
        <mxCell id="Ze2faGp0OF61Ij0ISh6p-1" value="Директор" style="rounded=0;whiteSpace=wrap;html=1;" vertex="1" parent="1">
          <mxGeometry x="370" y="70" width="120" height="60" as="geometry" />
        </mxCell>
        <mxCell id="Ze2faGp0OF61Ij0ISh6p-6" style="edgeStyle=orthogonalEdgeStyle;rounded=0;orthogonalLoop=1;jettySize=auto;html=1;entryX=1;entryY=0.5;entryDx=0;entryDy=0;" edge="1" parent="1" source="Ze2faGp0OF61Ij0ISh6p-2" target="Ze2faGp0OF61Ij0ISh6p-5">
          <mxGeometry relative="1" as="geometry" />
        </mxCell>
        <mxCell id="Ze2faGp0OF61Ij0ISh6p-8" style="edgeStyle=orthogonalEdgeStyle;rounded=0;orthogonalLoop=1;jettySize=auto;html=1;entryX=1;entryY=0.5;entryDx=0;entryDy=0;" edge="1" parent="1" source="Ze2faGp0OF61Ij0ISh6p-2" target="Ze2faGp0OF61Ij0ISh6p-7">
          <mxGeometry relative="1" as="geometry" />
        </mxCell>
        <mxCell id="Ze2faGp0OF61Ij0ISh6p-2" value="Директор по маркетигу" style="rounded=0;whiteSpace=wrap;html=1;" vertex="1" parent="1">
          <mxGeometry x="210" y="160" width="120" height="60" as="geometry" />
        </mxCell>
        <mxCell id="Ze2faGp0OF61Ij0ISh6p-13" style="edgeStyle=orthogonalEdgeStyle;rounded=0;orthogonalLoop=1;jettySize=auto;html=1;entryX=1;entryY=0.5;entryDx=0;entryDy=0;" edge="1" parent="1" source="Ze2faGp0OF61Ij0ISh6p-3" target="Ze2faGp0OF61Ij0ISh6p-12">
          <mxGeometry relative="1" as="geometry" />
        </mxCell>
        <mxCell id="Ze2faGp0OF61Ij0ISh6p-15" style="edgeStyle=orthogonalEdgeStyle;rounded=0;orthogonalLoop=1;jettySize=auto;html=1;entryX=1;entryY=0.5;entryDx=0;entryDy=0;" edge="1" parent="1" source="Ze2faGp0OF61Ij0ISh6p-3" target="Ze2faGp0OF61Ij0ISh6p-14">
          <mxGeometry relative="1" as="geometry" />
        </mxCell>
        <mxCell id="Ze2faGp0OF61Ij0ISh6p-3" value="Главный Frontend-разработчик" style="rounded=0;whiteSpace=wrap;html=1;" vertex="1" parent="1">
          <mxGeometry x="370" y="160" width="120" height="60" as="geometry" />
        </mxCell>
        <mxCell id="Ze2faGp0OF61Ij0ISh6p-17" style="edgeStyle=orthogonalEdgeStyle;rounded=0;orthogonalLoop=1;jettySize=auto;html=1;entryX=1;entryY=0.5;entryDx=0;entryDy=0;" edge="1" parent="1" source="Ze2faGp0OF61Ij0ISh6p-4" target="Ze2faGp0OF61Ij0ISh6p-16">
          <mxGeometry relative="1" as="geometry" />
        </mxCell>
        <mxCell id="Ze2faGp0OF61Ij0ISh6p-19" style="edgeStyle=orthogonalEdgeStyle;rounded=0;orthogonalLoop=1;jettySize=auto;html=1;entryX=1;entryY=0.5;entryDx=0;entryDy=0;" edge="1" parent="1" source="Ze2faGp0OF61Ij0ISh6p-4" target="Ze2faGp0OF61Ij0ISh6p-18">
          <mxGeometry relative="1" as="geometry" />
        </mxCell>
        <mxCell id="Ze2faGp0OF61Ij0ISh6p-4" value="Главный Backend-разраотчик" style="rounded=0;whiteSpace=wrap;html=1;" vertex="1" parent="1">
          <mxGeometry x="530" y="160" width="120" height="60" as="geometry" />
        </mxCell>
        <mxCell id="Ze2faGp0OF61Ij0ISh6p-5" value="Менеджер" style="rounded=0;whiteSpace=wrap;html=1;" vertex="1" parent="1">
          <mxGeometry x="130" y="240" width="120" height="60" as="geometry" />
        </mxCell>
        <mxCell id="Ze2faGp0OF61Ij0ISh6p-7" value="Менеджер по рекламе" style="rounded=0;whiteSpace=wrap;html=1;" vertex="1" parent="1">
          <mxGeometry x="130" y="310" width="120" height="60" as="geometry" />
        </mxCell>
        <mxCell id="Ze2faGp0OF61Ij0ISh6p-12" value="Frontend-разработчик" style="rounded=0;whiteSpace=wrap;html=1;" vertex="1" parent="1">
          <mxGeometry x="290" y="240" width="120" height="60" as="geometry" />
        </mxCell>
        <mxCell id="Ze2faGp0OF61Ij0ISh6p-14" value="Верстальщик" style="rounded=0;whiteSpace=wrap;html=1;" vertex="1" parent="1">
          <mxGeometry x="290" y="310" width="120" height="60" as="geometry" />
        </mxCell>
        <mxCell id="Ze2faGp0OF61Ij0ISh6p-16" value="Backend-разработчик" style="rounded=0;whiteSpace=wrap;html=1;" vertex="1" parent="1">
          <mxGeometry x="450" y="240" width="120" height="60" as="geometry" />
        </mxCell>
        <mxCell id="Ze2faGp0OF61Ij0ISh6p-18" value="Backend-разработчик" style="rounded=0;whiteSpace=wrap;html=1;" vertex="1" parent="1">
          <mxGeometry x="450" y="310" width="120" height="60" as="geometry" />
        </mxCell>
      </root>
    </mxGraphModel>
  </diagram>
</mxfile>
